<svg width="24" height="24" viewBox="0 0 24 24" fill="none" xmlns="http://www.w3.org/2000/svg">
<g id="Frame 60809">
<g id="Group 20461">
<path id="BreES (Stroke)" fill-rule="evenodd" clip-rule="evenodd" d="M7.52747 6.30205H11.8942C13.8396 6.30205 15.3227 6.55462 16.3437 7.05976C17.3785 7.56489 17.8958 8.41134 17.8958 9.59909C17.8958 10.5548 17.5992 11.3056 17.0059 11.8517C16.6134 12.2131 16.1544 12.5056 15.629 12.7295C15.3603 12.844 15.0743 12.9405 14.7708 13.019C15.0848 13.0791 15.3755 13.1586 15.6429 13.2573C16.1043 13.4276 16.4965 13.6553 16.8197 13.9405C17.3302 14.3911 17.5854 15.0873 17.5854 16.0293C17.5854 17.3946 17.0266 18.4936 15.9091 19.3264C14.8053 20.1455 12.9979 20.5551 10.4869 20.5551H5.52002L7.52747 6.30205ZM15.882 12.9801C16.2153 13.1419 16.8868 13.3385 17.1516 13.5723C17.8047 14.1487 18.0841 15.0038 18.0841 16.0293C18.0841 17.5521 17.4497 18.7961 16.2091 19.7206L16.2083 19.7211C14.972 20.6387 13.0284 21.0486 10.4869 21.0486H4.94702L7.09347 5.80859H11.8942C13.8689 5.80859 15.4428 6.06269 16.5656 6.61782C17.1542 6.90543 17.6196 7.30281 17.9345 7.81806C18.249 8.3325 18.3945 8.93334 18.3945 9.59909C18.3945 10.6633 18.0596 11.5558 17.3456 12.213C17.0195 12.5132 16.2837 12.7684 15.882 12.9801Z" fill="#1458DD"/>
<path id="BreES (Stroke)_2" fill-rule="evenodd" clip-rule="evenodd" d="M5.57899 7.25455C6.10773 7.25455 6.56445 7.25455 6.99381 7.25455C7.12811 7.25455 7.25796 6.30205 7.38359 6.30205C8.12272 6.30205 8.71592 6.30205 9.21235 6.30205C9.30434 6.30205 9.39301 7.25455 9.47867 7.25455C10.5513 7.25455 11.1519 7.25455 11.8946 7.25455C13.84 7.25455 11.5228 7.50712 12.5437 8.01225C13.5785 8.51739 12.147 9.36384 12.147 10.5516C12.147 11.5073 11.8503 12.2581 11.2571 12.8042C10.8645 13.1656 10.4055 13.4581 9.88013 13.682C9.61145 13.7965 9.3254 13.893 9.02197 13.9715C9.3359 14.0316 9.6266 14.1111 9.89407 14.2098C10.3554 14.3801 10.163 14.6078 10.4861 14.893C10.9966 15.3436 11.2519 16.0398 11.2519 16.9818C11.2519 18.3471 16.15 18.9698 15.0325 19.8026C13.9287 20.6218 11.0495 21.5076 8.53842 21.5076H3.57154L5.57899 7.25455ZM10.1332 13.9326C10.4665 14.0944 10.5532 14.291 10.8181 14.5248C11.4712 15.1012 11.7506 15.9563 11.7506 16.9818C11.7506 18.5046 16.5731 19.2723 15.3325 20.1968L15.3317 20.1974C14.0954 21.1149 11.0799 22.001 8.53842 22.001H2.99854L5.14498 6.76109H7.09125L7.43231 5.80859H9.28378L9.57612 6.76109H11.8946C13.8693 6.76109 11.6428 7.01518 12.7656 7.57032C13.3543 7.85793 11.8707 8.25531 12.1856 8.77056C12.5001 9.285 12.6457 9.88584 12.6457 10.5516C12.6457 11.6158 12.3108 12.5083 11.5967 13.1655C11.2707 13.4657 10.5348 13.7209 10.1332 13.9326Z" fill="#1458DD"/>
<path id="BreES" d="M17.4385 11.5616C18.4134 11.746 19.1918 12.0919 19.7736 12.5991C20.3554 13.1063 20.6463 13.8902 20.6463 14.9507C20.6463 16.4877 20.0095 17.725 18.7358 18.6626C17.4778 19.5848 15.4179 20.0459 12.5561 20.0459H6.89526L9.18317 3.99951H14.16C16.3771 3.99951 18.0675 4.28386 19.2311 4.85255C20.4104 5.42125 21.0001 6.37419 21.0001 7.71139C21.0001 8.7873 20.662 9.63265 19.9859 10.2475C19.3097 10.8623 18.4606 11.3003 17.4385 11.5616ZM13.8533 10.2013C14.7496 10.2013 15.3393 10.0246 15.6223 9.67108C15.9211 9.30219 16.0705 8.84878 16.0705 8.31082C16.0705 7.94194 15.9211 7.67296 15.6223 7.50389C15.3393 7.33482 14.8597 7.25029 14.1835 7.25029H13.4524L13.0278 10.2013H13.8533ZM13.0278 16.7029C14.0813 16.7029 14.7968 16.5185 15.1742 16.1496C15.5673 15.7653 15.7639 15.2274 15.7639 14.5357C15.7639 13.6442 15.0956 13.1985 13.759 13.1985H12.6032L12.1079 16.7029H13.0278Z" fill="#1458DD"/>
</g>
</g>
</svg>
