<svg width="24" height="24" viewBox="0 0 24 24" fill="none" xmlns="http://www.w3.org/2000/svg">
<g id="Search">
<path id="Vector" fill-rule="evenodd" clip-rule="evenodd" d="M10 7.00077C8.93913 7.00077 7.92172 7.42219 7.17157 8.17234C6.42143 8.92248 6 9.9399 6 11.0008C6 12.0616 6.42143 13.079 7.17157 13.8292C7.92172 14.5793 8.93913 15.0008 10 15.0008C11.0609 15.0008 12.0783 14.5793 12.8284 13.8292C13.5786 13.079 14 12.0616 14 11.0008C14 9.9399 13.5786 8.92248 12.8284 8.17234C12.0783 7.42219 11.0609 7.00077 10 7.00077ZM4 11.0008C3.99988 10.0565 4.22264 9.12548 4.65017 8.28351C5.0777 7.44154 5.69792 6.71236 6.4604 6.15529C7.22287 5.59822 8.10606 5.22898 9.03815 5.0776C9.97023 4.92622 10.9249 4.99698 11.8245 5.28412C12.724 5.57126 13.5432 6.06667 14.2152 6.73006C14.8872 7.39346 15.3931 8.2061 15.6919 9.1019C15.9906 9.9977 16.0737 10.9514 15.9343 11.8853C15.795 12.8193 15.4372 13.7072 14.89 14.4768L17.707 17.2938C17.8892 17.4824 17.99 17.735 17.9877 17.9972C17.9854 18.2594 17.8802 18.5102 17.6948 18.6956C17.5094 18.881 17.2586 18.9862 16.9964 18.9884C16.7342 18.9907 16.4816 18.8899 16.293 18.7078L13.477 15.8918C12.5794 16.53 11.5233 16.9089 10.4247 16.9869C9.326 17.0648 8.22707 16.8389 7.2483 16.3337C6.26953 15.8286 5.44869 15.0638 4.87572 14.1231C4.30276 13.1824 3.99979 12.1022 4 11.0008Z" fill="#B0BABF"/>
</g>
</svg>
