<svg width="18" height="18" viewBox="0 0 18 18" fill="none" xmlns="http://www.w3.org/2000/svg">
<g id="stack-bold-svgrepo-com 1">
<path id="Vector" d="M9 15.4514L8.94961 15.4221L2.6248 11.7326L9 15.4514ZM9 15.4514L9.05039 15.4221M9 15.4514L9.05039 15.4221M9.05039 15.4221L15.3752 11.7326C15.5456 11.6332 15.7485 11.6056 15.9393 11.6558C16.13 11.706 16.293 11.8299 16.3924 12.0002C16.4416 12.0846 16.4738 12.1778 16.4869 12.2746M9.05039 15.4221L16.4869 12.2746M15.3753 8.35754L15.3752 8.35757L9.05039 12.0471L9 12.0764L8.94961 12.0471L2.6248 8.3576L15.3753 8.35754ZM15.3753 8.35754C15.4597 8.30826 15.5529 8.27608 15.6497 8.26285C15.7465 8.24961 15.845 8.25559 15.9395 8.28042C16.034 8.30526 16.1227 8.34847 16.2005 8.4076C16.2783 8.46672 16.3436 8.54059 16.3929 8.62498C16.4421 8.70938 16.4742 8.80266 16.4874 8.89947C16.5006 8.99629 16.4945 9.09475 16.4696 9.18923C16.4447 9.28372 16.4015 9.37237 16.3423 9.45012C16.2831 9.52788 16.2092 9.59321 16.1248 9.6424L16.1247 9.64243L9.37475 13.5799L9.42514 13.6663L9.37475 13.5799C9.261 13.6463 9.13168 13.6812 9 13.6812C8.86832 13.6812 8.739 13.6463 8.62525 13.5799L8.57486 13.6663M15.3753 8.35754L8.57486 13.6663M8.57486 13.6663L8.62525 13.5799L1.8753 9.64246L8.57486 13.6663ZM16.4869 12.2746C16.5001 12.3714 16.4941 12.4698 16.4693 12.5643M16.4869 12.2746L16.4693 12.5643M16.4693 12.5643C16.4444 12.6587 16.4012 12.7474 16.3421 12.8251M16.4693 12.5643L16.3421 12.8251M16.3421 12.8251C16.283 12.9029 16.2091 12.9682 16.1248 13.0174M16.3421 12.8251L16.1248 13.0174M16.1248 13.0174L9.37475 16.9549M16.1248 13.0174L9.37475 16.9549M9.37475 16.9549C9.261 17.0213 9.13168 17.0562 9 17.0562M9.37475 16.9549L9 17.0562M9 17.0562C8.86832 17.0562 8.739 17.0213 8.62525 16.9549M9 17.0562L8.62525 16.9549M8.62525 16.9549L1.8753 13.0175M8.62525 16.9549L1.8753 13.0175M1.8753 13.0175L1.87525 13.0174C1.70503 12.918 1.58125 12.755 1.53114 12.5643C1.48102 12.3736 1.50867 12.1708 1.60802 12.0005C1.70737 11.8302 1.87029 11.7063 2.06095 11.6561C2.2516 11.6058 2.45439 11.6334 2.62475 11.7326L1.8753 13.0175ZM1.50625 5.625V5.62499C1.50624 5.495 1.54031 5.36728 1.60506 5.25456C1.6698 5.14185 1.76296 5.04807 1.87524 4.98257L1.87525 4.98257L8.62525 1.04507L8.62525 1.04507C8.739 0.978715 8.86832 0.94375 9 0.94375C9.13168 0.94375 9.261 0.978715 9.37475 1.04507L9.37475 1.04507L16.1247 4.98257C16.237 5.04807 16.3302 5.14185 16.3949 5.25457C16.4597 5.36729 16.4937 5.49501 16.4937 5.625C16.4937 5.75499 16.4597 5.88271 16.3949 5.99543C16.3302 6.10815 16.237 6.20193 16.1248 6.26742L16.1751 6.3538L16.1247 6.26743L9.37475 10.2049L9.42514 10.2913L9.37475 10.2049C9.261 10.2713 9.13168 10.3062 9 10.3062C8.86832 10.3062 8.739 10.2713 8.62525 10.2049L8.57486 10.2913L8.62525 10.2049L1.87525 6.26743L1.87524 6.26742C1.76296 6.20193 1.6698 6.10815 1.60506 5.99543C1.54031 5.88271 1.50624 5.75499 1.50625 5.625ZM3.87414 5.53862L3.72606 5.625L3.87414 5.71138L8.94961 8.67205L9 8.70145L9.05039 8.67205L14.1259 5.71138L14.2739 5.625L14.1259 5.53862L9.05039 2.57794L9 2.54855L8.94961 2.57794L3.87414 5.53862ZM2.06095 8.28107C2.2516 8.23083 2.45439 8.25835 2.62475 8.35757L1.87525 9.64243C1.70503 9.54297 1.58125 9.37999 1.53114 9.18931C1.48102 8.99862 1.50867 8.79582 1.60802 8.62551C1.70737 8.4552 1.87029 8.3313 2.06095 8.28107Z" fill="#787486" stroke="white" stroke-width="0.2"/>
</g>
</svg>
